<mxfile host="Electron" modified="2023-07-31T10:30:30.177Z" agent="Mozilla/5.0 (Windows NT 10.0; Win64; x64) AppleWebKit/537.36 (KHTML, like Gecko) draw.io/21.3.7 Chrome/112.0.5615.204 Electron/24.5.0 Safari/537.36" etag="GAic_BHbyMy1cCfhrd1c" version="21.3.7" type="device" pages="2">
  <diagram name="Page-1" id="vxM6Bo4Swo91zMLj9FFa">
    <mxGraphModel dx="780" dy="544" grid="1" gridSize="10" guides="1" tooltips="1" connect="1" arrows="1" fold="1" page="1" pageScale="1" pageWidth="850" pageHeight="1100" math="0" shadow="0">
      <root>
        <mxCell id="0" />
        <mxCell id="1" parent="0" />
        <mxCell id="uGAMIdUxd2uuGZbwcF3s-9" value="" style="rounded=0;whiteSpace=wrap;html=1;dashed=1;fillColor=#dae8fc;strokeColor=#6c8ebf;" vertex="1" parent="1">
          <mxGeometry x="120" y="190" width="560" height="100" as="geometry" />
        </mxCell>
        <mxCell id="uGAMIdUxd2uuGZbwcF3s-5" value="" style="rounded=0;whiteSpace=wrap;html=1;dashed=1;fillColor=#e1d5e7;strokeColor=#9673a6;" vertex="1" parent="1">
          <mxGeometry x="120" y="290" width="560" height="110" as="geometry" />
        </mxCell>
        <mxCell id="uGAMIdUxd2uuGZbwcF3s-6" style="edgeStyle=orthogonalEdgeStyle;rounded=0;orthogonalLoop=1;jettySize=auto;html=1;entryX=0.5;entryY=0;entryDx=0;entryDy=0;strokeWidth=3;fillColor=#d5e8d4;strokeColor=#82b366;" edge="1" parent="1" source="uGAMIdUxd2uuGZbwcF3s-1" target="uGAMIdUxd2uuGZbwcF3s-3">
          <mxGeometry relative="1" as="geometry" />
        </mxCell>
        <mxCell id="uGAMIdUxd2uuGZbwcF3s-7" style="edgeStyle=orthogonalEdgeStyle;rounded=0;orthogonalLoop=1;jettySize=auto;html=1;entryX=0.5;entryY=0;entryDx=0;entryDy=0;strokeWidth=3;fillColor=#d5e8d4;strokeColor=#82b366;" edge="1" parent="1" source="uGAMIdUxd2uuGZbwcF3s-1" target="uGAMIdUxd2uuGZbwcF3s-4">
          <mxGeometry relative="1" as="geometry" />
        </mxCell>
        <mxCell id="uGAMIdUxd2uuGZbwcF3s-8" style="edgeStyle=orthogonalEdgeStyle;rounded=0;orthogonalLoop=1;jettySize=auto;html=1;entryX=0.5;entryY=0;entryDx=0;entryDy=0;strokeWidth=3;fillColor=#d5e8d4;strokeColor=#82b366;" edge="1" parent="1" source="uGAMIdUxd2uuGZbwcF3s-1" target="uGAMIdUxd2uuGZbwcF3s-2">
          <mxGeometry relative="1" as="geometry" />
        </mxCell>
        <mxCell id="uGAMIdUxd2uuGZbwcF3s-1" value="Animal" style="rounded=0;whiteSpace=wrap;html=1;shadow=1;fillColor=#fff2cc;strokeColor=#d6b656;" vertex="1" parent="1">
          <mxGeometry x="340" y="200" width="120" height="60" as="geometry" />
        </mxCell>
        <mxCell id="uGAMIdUxd2uuGZbwcF3s-2" value="Cat&amp;nbsp;" style="rounded=0;whiteSpace=wrap;html=1;shadow=1;fillColor=#fff2cc;strokeColor=#d6b656;" vertex="1" parent="1">
          <mxGeometry x="160" y="320" width="120" height="60" as="geometry" />
        </mxCell>
        <mxCell id="uGAMIdUxd2uuGZbwcF3s-3" value="Dog" style="rounded=0;whiteSpace=wrap;html=1;shadow=1;fillColor=#fff2cc;strokeColor=#d6b656;" vertex="1" parent="1">
          <mxGeometry x="340" y="320" width="120" height="60" as="geometry" />
        </mxCell>
        <mxCell id="uGAMIdUxd2uuGZbwcF3s-4" value="Cow" style="rounded=0;whiteSpace=wrap;html=1;shadow=1;fillColor=#fff2cc;strokeColor=#d6b656;" vertex="1" parent="1">
          <mxGeometry x="520" y="320" width="120" height="60" as="geometry" />
        </mxCell>
      </root>
    </mxGraphModel>
  </diagram>
  <diagram id="a-6N3_VATIcbe7mzj195" name="Page-2">
    <mxGraphModel dx="780" dy="544" grid="1" gridSize="10" guides="1" tooltips="1" connect="1" arrows="1" fold="1" page="1" pageScale="1" pageWidth="850" pageHeight="1100" math="0" shadow="0">
      <root>
        <mxCell id="0" />
        <mxCell id="1" parent="0" />
        <mxCell id="x2CUEW86x5NClIj9K2HI-21" value="" style="rounded=0;whiteSpace=wrap;html=1;strokeColor=none;shadow=1;" vertex="1" parent="1">
          <mxGeometry x="200" y="210" width="780" height="380" as="geometry" />
        </mxCell>
        <mxCell id="x2CUEW86x5NClIj9K2HI-19" value="" style="rounded=0;whiteSpace=wrap;html=1;fillColor=#f5f5f5;fontColor=#333333;strokeColor=#666666;shadow=1;" vertex="1" parent="1">
          <mxGeometry x="650" y="318" width="310" height="130" as="geometry" />
        </mxCell>
        <mxCell id="x2CUEW86x5NClIj9K2HI-8" value="&lt;b&gt;Implements&lt;/b&gt;" style="edgeStyle=orthogonalEdgeStyle;rounded=0;orthogonalLoop=1;jettySize=auto;html=1;entryX=0.5;entryY=0;entryDx=0;entryDy=0;" edge="1" parent="1" source="x2CUEW86x5NClIj9K2HI-1" target="x2CUEW86x5NClIj9K2HI-2">
          <mxGeometry relative="1" as="geometry" />
        </mxCell>
        <mxCell id="x2CUEW86x5NClIj9K2HI-16" style="edgeStyle=orthogonalEdgeStyle;rounded=0;orthogonalLoop=1;jettySize=auto;html=1;entryX=0;entryY=0.5;entryDx=0;entryDy=0;" edge="1" parent="1" source="x2CUEW86x5NClIj9K2HI-1" target="x2CUEW86x5NClIj9K2HI-15">
          <mxGeometry relative="1" as="geometry">
            <mxPoint x="650" y="390" as="targetPoint" />
          </mxGeometry>
        </mxCell>
        <mxCell id="x2CUEW86x5NClIj9K2HI-1" value="" style="rounded=0;whiteSpace=wrap;html=1;fillColor=#d5e8d4;strokeColor=#82b366;shadow=1;" vertex="1" parent="1">
          <mxGeometry x="220" y="233" width="340" height="120" as="geometry" />
        </mxCell>
        <mxCell id="x2CUEW86x5NClIj9K2HI-9" value="&lt;b&gt;extends&lt;/b&gt;" style="edgeStyle=orthogonalEdgeStyle;rounded=0;orthogonalLoop=1;jettySize=auto;html=1;entryX=0.5;entryY=0;entryDx=0;entryDy=0;" edge="1" parent="1" source="x2CUEW86x5NClIj9K2HI-2" target="x2CUEW86x5NClIj9K2HI-3">
          <mxGeometry relative="1" as="geometry" />
        </mxCell>
        <mxCell id="x2CUEW86x5NClIj9K2HI-2" value="" style="rounded=0;whiteSpace=wrap;html=1;fillColor=#e1d5e7;strokeColor=#9673a6;shadow=1;" vertex="1" parent="1">
          <mxGeometry x="220" y="410" width="340" height="50" as="geometry" />
        </mxCell>
        <mxCell id="x2CUEW86x5NClIj9K2HI-17" style="edgeStyle=orthogonalEdgeStyle;rounded=0;orthogonalLoop=1;jettySize=auto;html=1;entryX=0;entryY=0.5;entryDx=0;entryDy=0;" edge="1" parent="1" source="x2CUEW86x5NClIj9K2HI-3" target="x2CUEW86x5NClIj9K2HI-15">
          <mxGeometry relative="1" as="geometry">
            <mxPoint x="660" y="390" as="targetPoint" />
          </mxGeometry>
        </mxCell>
        <mxCell id="x2CUEW86x5NClIj9K2HI-3" value="" style="rounded=0;whiteSpace=wrap;html=1;fillColor=#dae8fc;strokeColor=#6c8ebf;shadow=1;" vertex="1" parent="1">
          <mxGeometry x="220" y="515" width="340" height="50" as="geometry" />
        </mxCell>
        <mxCell id="x2CUEW86x5NClIj9K2HI-10" style="edgeStyle=orthogonalEdgeStyle;rounded=0;orthogonalLoop=1;jettySize=auto;html=1;entryX=1;entryY=0.5;entryDx=0;entryDy=0;dashed=1;strokeWidth=2;" edge="1" parent="1" source="x2CUEW86x5NClIj9K2HI-4" target="x2CUEW86x5NClIj9K2HI-6">
          <mxGeometry relative="1" as="geometry">
            <Array as="points">
              <mxPoint x="510" y="270" />
              <mxPoint x="510" y="436" />
            </Array>
          </mxGeometry>
        </mxCell>
        <mxCell id="x2CUEW86x5NClIj9K2HI-4" value="test_1 (abstract)" style="rounded=0;whiteSpace=wrap;html=1;fillColor=#ffe6cc;strokeColor=#d79b00;shadow=1;" vertex="1" parent="1">
          <mxGeometry x="360" y="253" width="120" height="30" as="geometry" />
        </mxCell>
        <mxCell id="x2CUEW86x5NClIj9K2HI-11" style="edgeStyle=orthogonalEdgeStyle;rounded=0;orthogonalLoop=1;jettySize=auto;html=1;entryX=1;entryY=0.5;entryDx=0;entryDy=0;strokeWidth=2;dashed=1;" edge="1" parent="1" source="x2CUEW86x5NClIj9K2HI-5" target="x2CUEW86x5NClIj9K2HI-7">
          <mxGeometry relative="1" as="geometry">
            <Array as="points">
              <mxPoint x="530" y="320" />
              <mxPoint x="530" y="540" />
            </Array>
          </mxGeometry>
        </mxCell>
        <mxCell id="x2CUEW86x5NClIj9K2HI-5" value="test_2 (abstract)" style="rounded=0;whiteSpace=wrap;html=1;fillColor=#fff2cc;strokeColor=#d6b656;shadow=1;" vertex="1" parent="1">
          <mxGeometry x="360" y="303" width="120" height="30" as="geometry" />
        </mxCell>
        <mxCell id="x2CUEW86x5NClIj9K2HI-6" value="test_1 (method)" style="rounded=0;whiteSpace=wrap;html=1;fillColor=#ffe6cc;strokeColor=#d79b00;shadow=1;" vertex="1" parent="1">
          <mxGeometry x="360" y="421" width="120" height="30" as="geometry" />
        </mxCell>
        <mxCell id="x2CUEW86x5NClIj9K2HI-7" value="test_2 (method)" style="rounded=0;whiteSpace=wrap;html=1;fillColor=#fff2cc;strokeColor=#d6b656;shadow=1;" vertex="1" parent="1">
          <mxGeometry x="365" y="525" width="120" height="30" as="geometry" />
        </mxCell>
        <mxCell id="x2CUEW86x5NClIj9K2HI-12" value="Test_interface" style="text;html=1;strokeColor=none;fillColor=none;align=center;verticalAlign=middle;whiteSpace=wrap;rounded=0;" vertex="1" parent="1">
          <mxGeometry x="240" y="278" width="60" height="30" as="geometry" />
        </mxCell>
        <mxCell id="x2CUEW86x5NClIj9K2HI-13" value="Test_abstract" style="text;html=1;strokeColor=none;fillColor=none;align=center;verticalAlign=middle;whiteSpace=wrap;rounded=0;" vertex="1" parent="1">
          <mxGeometry x="240" y="420" width="60" height="30" as="geometry" />
        </mxCell>
        <mxCell id="x2CUEW86x5NClIj9K2HI-14" value="Test_class" style="text;html=1;strokeColor=none;fillColor=none;align=center;verticalAlign=middle;whiteSpace=wrap;rounded=0;" vertex="1" parent="1">
          <mxGeometry x="240" y="525" width="60" height="30" as="geometry" />
        </mxCell>
        <mxCell id="x2CUEW86x5NClIj9K2HI-15" value="Test_interface int_ibject = new Test_class()" style="rounded=0;whiteSpace=wrap;html=1;fillColor=#fff2cc;strokeColor=#d6b656;shadow=1;" vertex="1" parent="1">
          <mxGeometry x="680" y="360" width="260" height="60" as="geometry" />
        </mxCell>
        <mxCell id="x2CUEW86x5NClIj9K2HI-18" value="Main&amp;nbsp;" style="text;html=1;strokeColor=none;fillColor=none;align=center;verticalAlign=middle;whiteSpace=wrap;rounded=0;" vertex="1" parent="1">
          <mxGeometry x="775" y="323" width="60" height="30" as="geometry" />
        </mxCell>
      </root>
    </mxGraphModel>
  </diagram>
</mxfile>
